# xmcd
#
# Track frame offsets:
#	150
#	14155
#	24435
#	35737
#	49857
#	63740
#	77780
#	91417
#	103022
#	115772
#	128450
#	141050
#	154345
#	166687
#	177430
#	189365
#
# Disc length: 2683 seconds
#
# Revision: 1
# Processed by: cddbd v1.5PL3 Copyright (c) Steve Scherf et al.
# Submitted via: CDex 1.50Beta5
#
DISCID=d40a7910
DTITLE=Otis Rush - 21 Blues Giants
DYEAR=1900
DGENRE=Blues
TTITLE0=I Can't Quit You, Baby
TTITLE1=Sit Down Baby
TTITLE2=Violent Love
TTITLE3=My Love Will Never Die
TTITLE4=Groaning The Blues
TTITLE5=If You Were Mine
TTITLE6=Love That Woman
TTITLE7=Jump Sister Bessie
TTITLE8=Three Times A Fool
TTITLE9=She's A Good 'un
TTITLE10=It Takes Time
TTITLE11=Checking On My Baby
TTITLE12=Double Trouble
TTITLE13=Keep On Loving Me Baby
TTITLE14=All Your Love (I Miss Loving)
TTITLE15=My Baby's A Good 'un
EXTD=
EXTT0=
EXTT1=
EXTT2=
EXTT3=
EXTT4=
EXTT5=
EXTT6=
EXTT7=
EXTT8=
EXTT9=
EXTT10=
EXTT11=
EXTT12=
EXTT13=
EXTT14=
EXTT15=
PLAYORDER=
